<?xml version="1.0" encoding="UTF-8" standalone="no"?>
<svg
   viewBox="0 0 128 128"
   version="1.1"
   id="svg8"
      xmlns="http://www.w3.org/2000/svg"
   xmlns:svg="http://www.w3.org/2000/svg">
  <path
     fill="#659AD3"
     d="M115.4 30.7L67.1 2.9c-.8-.5-1.9-.7-3.1-.7-1.2 0-2.3.3-3.1.7l-48 27.9c-1.7 1-2.9 3.5-2.9 5.4v55.7c0 1.1.2 2.4 1 3.5l106.8-62c-.6-1.2-1.5-2.1-2.4-2.7z"
     id="path2"
     style="fill:#808080" />
  <path
     fill="#03599C"
     d="M10.7 95.3c.5.8 1.2 1.5 1.9 1.9l48.2 27.9c.8.5 1.9.7 3.1.7 1.2 0 2.3-.3 3.1-.7l48-27.9c1.7-1 2.9-3.5 2.9-5.4V36.1c0-.9-.1-1.9-.6-2.8l-106.6 62z"
     id="path4"
     style="fill:#333333" />
  <g style="fill:#ffffff" >
    <path
       d="M 34.631849,74.070451 H 22.090173 l -1.979168,5.666671 h -8.062506 l 11.520842,-31.10419 h 9.562507 L 44.65269,79.737122 H 36.590184 Z M 24.090174,68.299613 h 8.52084 L 28.361011,55.924604 Z"
       id="path96" />
    <path
       d="m 70.423543,49.612099 v 6.583338 q -2.562502,-1.145834 -5.000004,-1.729168 -2.437502,-0.583333 -4.60417,-0.583333 -2.875002,0 -4.250003,0.791667 -1.375001,0.791667 -1.375001,2.458335 0,1.250001 0.916667,1.958335 0.937501,0.6875 3.375003,1.187501 l 3.416669,0.6875 q 5.187504,1.041668 7.375006,3.166669 2.187501,2.125002 2.187501,6.041671 0,5.145838 -3.062502,7.666673 -3.041669,2.500002 -9.312507,2.500002 -2.958336,0 -5.937505,-0.562501 -2.979168,-0.5625 -5.958337,-1.666668 v -6.770838 q 2.979169,1.583335 5.750004,2.395835 2.791669,0.791667 5.375004,0.791667 2.625002,0 4.020836,-0.875 1.395835,-0.875001 1.395835,-2.500002 0,-1.458335 -0.958334,-2.250002 -0.937501,-0.791667 -3.770836,-1.416668 l -3.104169,-0.6875 q -4.666671,-1.000001 -6.833339,-3.187502 -2.145835,-2.187502 -2.145835,-5.895838 0,-4.645837 3.000002,-7.145839 3.000003,-2.500002 8.625007,-2.500002 2.562502,0 5.270837,0.395834 2.708335,0.375 5.604171,1.145834 z"
       id="path98" />
    <path
       d="m 79.50688,48.632932 h 10.208341 l 7.083339,16.645845 7.12501,-16.645845 h 10.1875 v 31.10419 h -7.58334 V 56.987105 L 99.361062,73.75795 H 94.277725 L 87.111053,56.987105 V 79.737122 H 79.50688 Z"
       id="path100" />
  </g>
</svg>
